<svg width="100" height="100" viewBox="0 0 100 100" fill="none" xmlns="http://www.w3.org/2000/svg">
  <rect width="100" height="100" rx="50" fill="#0D0D0D"/>
  <path d="M39.9092 63.7344V36.6641C39.9092 36.6641 45.5033 36.6641 56.6914 36.6641C59.403 36.6641 61.7272 37.9971 63.6641 40.6631C65.6237 43.3063 66.6035 46.485 66.6035 50.1992C66.6035 53.9362 65.6237 57.1263 63.6641 59.7695C61.7272 62.4128 59.403 63.7344 56.6914 63.7344H39.9092ZM42.3701 61.2734H56.6914C58.7194 61.2734 60.4512 60.1911 61.8867 58.0264C63.3451 55.8617 64.0742 53.2526 64.0742 50.1992C64.0742 47.123 63.3451 44.514 61.8867 42.3721C60.4512 40.2074 58.7194 39.125 56.6914 39.125H42.3701V61.2734ZM37.4482 66.1953H56.6914C60.0866 66.1953 63.0033 64.6344 65.4414 61.5127C67.9023 58.3682 69.1328 54.597 69.1328 50.1992C69.1328 47.3053 68.5632 44.6279 67.4238 42.167C66.3073 39.7061 64.792 37.7692 62.8779 36.3564C60.9867 34.9209 58.9245 34.2031 56.6914 34.2031H37.4482V66.1953ZM34.9873 68.6562V31.7422H56.6914C59.3574 31.7422 61.8411 32.5625 64.1426 34.2031C66.444 35.8438 68.2669 38.0882 69.6113 40.9365C70.9785 43.762 71.6621 46.8496 71.6621 50.1992C71.6621 53.526 70.9785 56.6136 69.6113 59.4619C68.2669 62.3102 66.444 64.5547 64.1426 66.1953C61.8411 67.8359 59.3574 68.6562 56.6914 68.6562H34.9873ZM32.5264 71.1172H56.6914C59.8132 71.1172 62.707 70.1829 65.373 68.3145C68.0618 66.446 70.2038 63.9053 71.7988 60.6924C73.3939 57.4795 74.1914 53.9818 74.1914 50.1992C74.1914 46.4395 73.3939 42.9531 71.7988 39.7402C70.2038 36.5046 68.0618 33.9525 65.373 32.084C62.6842 30.2155 59.7904 29.2812 56.6914 29.2812H32.5264V71.1172ZM30.0654 73.5781V26.8203H56.6914C60.2461 26.8203 63.5615 27.8685 66.6377 29.9648C69.7139 32.0384 72.1634 34.8753 73.9863 38.4756C75.8092 42.0758 76.7207 45.9837 76.7207 50.1992C76.7207 54.4147 75.8092 58.3226 73.9863 61.9229C72.1634 65.5231 69.7139 68.3714 66.6377 70.4678C63.5615 72.5413 60.2461 73.5781 56.6914 73.5781H30.0654ZM27.6045 76.0391H56.6914C59.6764 76.0391 62.5589 75.3555 65.3389 73.9883C68.1188 72.6211 70.5228 70.7868 72.5508 68.4854C74.5788 66.1839 76.1966 63.4382 77.4043 60.248C78.6348 57.0352 79.25 53.6855 79.25 50.1992C79.25 46.7129 78.6348 43.3747 77.4043 40.1846C76.1966 36.9945 74.5788 34.2487 72.5508 31.9473C70.5228 29.623 68.1188 27.7773 65.3389 26.4102C62.5589 25.043 59.6764 24.3594 56.6914 24.3594H27.6045V76.0391ZM56.6914 78.5H25.1436V21.8984H56.6914C61.1348 21.8984 65.2819 23.1631 69.1328 25.6924C72.9837 28.2217 76.0485 31.6624 78.3271 36.0146C80.6286 40.3669 81.7793 45.0951 81.7793 50.1992C81.7793 54.0273 81.0957 57.696 79.7285 61.2051C78.3841 64.6914 76.584 67.6992 74.3281 70.2285C72.0723 72.7578 69.3949 74.7744 66.2959 76.2783C63.2197 77.7594 60.0182 78.5 56.6914 78.5Z" fill="white"/>
</svg>
